<!-- filepath: c:\Users\PC\Desktop\alec\Project\mern-thinkboard\frontend\public\favicon.svg -->
<svg xmlns="http://www.w3.org/2000/svg" viewBox="0 0 64 64" width="64" height="64">
  <defs>
    <linearGradient id="boardGradient" x1="0%" y1="0%" x2="100%" y2="100%">
      <stop offset="0%" style="stop-color:#22c55e;stop-opacity:1" />
      <stop offset="100%" style="stop-color:#16a34a;stop-opacity:1" />
    </linearGradient>
    <linearGradient id="noteGradient" x1="0%" y1="0%" x2="100%" y2="100%">
      <stop offset="0%" style="stop-color:#f0fdf4;stop-opacity:1" />
      <stop offset="100%" style="stop-color:#dcfce7;stop-opacity:1" />
    </linearGradient>
  </defs>
  
  <!-- Main board background -->
  <rect x="8" y="12" width="48" height="40" rx="6" fill="url(#boardGradient)" stroke="#16a34a" stroke-width="2"/>
  
  <!-- Note cards -->
  <rect x="14" y="18" width="16" height="12" rx="3" fill="url(#noteGradient)" stroke="#bbf7d0" stroke-width="1"/>
  <rect x="34" y="18" width="16" height="12" rx="3" fill="url(#noteGradient)" stroke="#bbf7d0" stroke-width="1"/>
  <rect x="14" y="34" width="16" height="12" rx="3" fill="url(#noteGradient)" stroke="#bbf7d0" stroke-width="1"/>
  <rect x="34" y="34" width="16" height="12" rx="3" fill="url(#noteGradient)" stroke="#bbf7d0" stroke-width="1"/>
  
  <!-- Lines on notes to represent text -->
  <line x1="16" y1="22" x2="28" y2="22" stroke="#15803d" stroke-width="1" stroke-linecap="round"/>
  <line x1="16" y1="25" x2="26" y2="25" stroke="#15803d" stroke-width="1" stroke-linecap="round"/>
  
  <line x1="36" y1="22" x2="48" y2="22" stroke="#15803d" stroke-width="1" stroke-linecap="round"/>
  <line x1="36" y1="25" x2="46" y2="25" stroke="#15803d" stroke-width="1" stroke-linecap="round"/>
  
  <line x1="16" y1="38" x2="28" y2="38" stroke="#15803d" stroke-width="1" stroke-linecap="round"/>
  <line x1="16" y1="41" x2="26" y2="41" stroke="#15803d" stroke-width="1" stroke-linecap="round"/>
  
  <line x1="36" y1="38" x2="48" y2="38" stroke="#15803d" stroke-width="1" stroke-linecap="round"/>
  <line x1="36" y1="41" x2="46" y2="41" stroke="#15803d" stroke-width="1" stroke-linecap="round"/>
  
  <!-- Thinking bubble -->
  <circle cx="52" cy="8" r="4" fill="#22c55e" opacity="0.8"/>
  <circle cx="48" cy="6" r="2" fill="#22c55e" opacity="0.6"/>
  <circle cx="45" cy="5" r="1" fill="#22c55e" opacity="0.4"/>
</svg>