<svg xmlns="http://www.w3.org/2000/svg" viewBox="0 0 64 64" width="64" height="64">
  <defs>
    <linearGradient id="brainGradient" x1="0%" y1="0%" x2="100%" y2="100%">
      <stop offset="0%" style="stop-color:#4F46E5;stop-opacity:1" />
      <stop offset="100%" style="stop-color:#7C3AED;stop-opacity:1" />
    </linearGradient>
  </defs>
  <!-- Brain/thought bubble shape -->
  <path d="M32 8C20 8 10 18 10 30c0 8 4 15 10 19v5c0 1 1 2 2 2h20c1 0 2-1 2-2v-5c6-4 10-11 10-19C54 18 44 8 32 8z" fill="url(#brainGradient)"/>
  <!-- Lightbulb filament lines -->
  <path d="M26 25h12M24 30h16M26 35h12" stroke="white" stroke-width="2" stroke-linecap="round"/>
  <!-- Base of lightbulb -->
  <rect x="26" y="48" width="12" height="4" rx="2" fill="#E5E7EB"/>
  <!-- Thought dots -->
  <circle cx="18" cy="20" r="2" fill="#4F46E5" opacity="0.6"/>
  <circle cx="46" cy="22" r="1.5" fill="#7C3AED" opacity="0.4"/>
  <circle cx="50" cy="15" r="1" fill="#4F46E5" opacity="0.3"/>
</svg>